HIERARCHY
ROOT Hips
{
	OFFSET 0.00000 0.00000 0.00000
	CHANNELS 6 Xposition Yposition Zposition Zrotation Yrotation Xrotation 
	JOINT LHipJoint
	{
		OFFSET 0 0 0
		CHANNELS 3 Zrotation Yrotation Xrotation
		JOINT LeftUpLeg
		{
			OFFSET 1.84395 -1.68683 0.74144
			CHANNELS 3 Zrotation Yrotation Xrotation
			JOINT LeftLeg
			{
				OFFSET 2.27037 -6.23779 0.00000
				CHANNELS 3 Zrotation Yrotation Xrotation
				JOINT LeftFoot
				{
					OFFSET 2.56918 -7.05877 0.00000
					CHANNELS 3 Zrotation Yrotation Xrotation
					JOINT LeftToeBase
					{
						OFFSET 0.22276 -0.61202 1.71784
						CHANNELS 3 Zrotation Yrotation Xrotation
						End Site
						{
							OFFSET 0.00000 -0.00000 0.91613
						}
					}
				}
			}
		}
	}
	JOINT RHipJoint
	{
		OFFSET 0 0 0
		CHANNELS 3 Zrotation Yrotation Xrotation
		JOINT RightUpLeg
		{
			OFFSET -1.76833 -1.68684 0.74144
			CHANNELS 3 Zrotation Yrotation Xrotation
			JOINT RightLeg
			{
				OFFSET -2.49360 -6.85110 0.00000
				CHANNELS 3 Zrotation Yrotation Xrotation
				JOINT RightFoot
				{
					OFFSET -2.55538 -7.02085 0.00000
					CHANNELS 3 Zrotation Yrotation Xrotation
					JOINT RightToeBase
					{
						OFFSET -0.21516 -0.59115 1.68050
						CHANNELS 3 Zrotation Yrotation Xrotation
						End Site
						{
							OFFSET -0.00000 -0.00000 0.89604
						}
					}
				}
			}
		}
	}
	JOINT LowerBack
	{
		OFFSET 0 0 0
		CHANNELS 3 Zrotation Yrotation Xrotation
		JOINT Spine
		{
			OFFSET 0.06382 1.72312 -0.19613
			CHANNELS 3 Zrotation Yrotation Xrotation
			JOINT Spine1
			{
				OFFSET -0.00055 1.73507 0.23859
				CHANNELS 3 Zrotation Yrotation Xrotation
				JOINT Neck
				{
					OFFSET 0 0 0
					CHANNELS 3 Zrotation Yrotation Xrotation
					JOINT Neck1
					{
						OFFSET 0.03638 1.65562 0.09633
						CHANNELS 3 Zrotation Yrotation Xrotation
						JOINT Head
						{
							OFFSET 0.06388 1.62807 -0.32386
							CHANNELS 3 Zrotation Yrotation Xrotation
							End Site
							{
								OFFSET 0.00995 1.67644 -0.12021
							}
						}
					}
				}
				JOINT LeftShoulder
				{
					OFFSET 0 0 0
					CHANNELS 3 Zrotation Yrotation Xrotation
					JOINT LeftArm
					{
						OFFSET 3.09648 1.42991 0.28122
						CHANNELS 3 Zrotation Yrotation Xrotation
						JOINT LeftForeArm
						{
							OFFSET 5.11878 -0.00000 -0.00000
							CHANNELS 3 Zrotation Yrotation Xrotation
							JOINT LeftHand
							{
								OFFSET 3.59971 -0.00000 0.00000
								CHANNELS 3 Zrotation Yrotation Xrotation
								JOINT LeftFingerBase
								{
									OFFSET 0 0 0
									CHANNELS 3 Zrotation Yrotation Xrotation
									JOINT LeftHandIndex1
									{
										OFFSET 0.62877 -0.00000 0.00000
										CHANNELS 3 Zrotation Yrotation Xrotation
										End Site
										{
											OFFSET 0.50693 -0.00000 0.00000
										}
									}
								}
								JOINT LThumb
								{
									OFFSET 0 0 0
									CHANNELS 3 Zrotation Yrotation Xrotation
									End Site
									{
										OFFSET 0.51467 -0.00000 0.51467
									}
								}
							}
						}
					}
				}
				JOINT RightShoulder
				{
					OFFSET 0 0 0
					CHANNELS 3 Zrotation Yrotation Xrotation
					JOINT RightArm
					{
						OFFSET -3.33565 1.14597 0.05047
						CHANNELS 3 Zrotation Yrotation Xrotation
						JOINT RightForeArm
						{
							OFFSET -5.49020 -0.00000 0.00000
							CHANNELS 3 Zrotation Yrotation Xrotation
							JOINT RightHand
							{
								OFFSET -3.20659 -0.00000 -0.00000
								CHANNELS 3 Zrotation Yrotation Xrotation
								JOINT RightFingerBase
								{
									OFFSET 0 0 0
									CHANNELS 3 Zrotation Yrotation Xrotation
									JOINT RightHandIndex1
									{
										OFFSET -0.69188 -0.00000 0.00000
										CHANNELS 3 Zrotation Yrotation Xrotation
										End Site
										{
											OFFSET -0.55781 -0.00000 0.00000
										}
									}
								}
								JOINT RThumb
								{
									OFFSET 0 0 0
									CHANNELS 3 Zrotation Yrotation Xrotation
									End Site
									{
										OFFSET -0.56633 -0.00000 0.56633
									}
								}
							}
						}
					}
				}
			}
		}
	}
}
MOTION
Frames: 15
Frame Time: .0083333
0.1804 17.4648 7.9636 0 0 0 0 0 0 -21 0 0 0 0 0 0 0 0 0 0 0 0 0 0 21 0 0 0 0 0 0 0 0 0 0 0 0 0 0 0 0 0 0 0 0 0 0 -16 0 0 21 0 0 11 0 0 0 -8 0 0 0 0 0 0 0 0 0 0 0 0 0 0 0 0 0 0 0 0 8 0 0 0 0 0 0 0 0 0 0 0 0 0 0 0 0 0
0.1804 17.4648 7.9636 -8.4160 3.0305 8.0695 0.0000 0.0000 0.0000 -15.3209 -38.4349 17.6847 0.0304 -1.1250 -3.0929 -5.6193 40.2320 -33.3036 0.1804 2.7360 7.5446 0.0000 0.0000 0.0000 24.1927 23.7711 2.6365 -0.0981 -2.0201 5.5611 0.6378 -18.1145 -19.0406 -0.0077 0.5662 -1.5559 3.5809 -0.8882 1.8912 2.3376 -0.6786 -10.0910 0.6128 -0.5263 -11.9201 -12.9636 -15.3195 1.5148 12.0248 -22.0216 10.9080 4.2377 -10.9185 5.8219 -0.0000 0.0000 0.0000 -96.7640 10.6942 0.1521 12.0048 -19.8119 -2.1039 -0.0000 -0.0000 28.1347 12.5049 -12.8094 -2.8150 -7.1250 0.0000 -0.0000 -10.2133 16.9978 6.8926 -0.0000 0.0000 0.0000 90.5086 -10.9504 -18.8931 -11.1031 18.4461 -1.8084 0.0000 0.0000 57.9549 6.9170 -33.5838 -3.8391 7.1250 -0.0000 -0.0000 43.5020 -57.9625 -15.7215
0.1960 17.4634 7.9548 -8.3925 3.0130 8.0980 0.0000 0.0000 0.0000 -15.2326 -38.2398 17.4787 0.0325 -1.1642 -3.2008 -5.7212 40.2767 -32.6997 0.1489 2.4862 6.8514 0.0000 0.0000 0.0000 24.1445 24.0645 2.7639 -0.0957 -1.9954 5.4930 0.6426 -18.2735 -19.2989 -0.0011 0.2170 -0.5962 3.6200 -0.8191 1.8966 2.2987 -0.5869 -10.0377 0.5361 -0.4871 -11.8608 -13.6940 -15.2908 1.9410 13.2878 -22.1534 10.4501 4.7292 -10.9832 5.8548 0.0000 -0.0000 0.0000 -96.5483 10.5811 0.0523 11.7739 -19.4647 -2.0263 -0.0000 -0.0000 28.6117 12.3540 -12.7261 -2.7623 -7.1250 0.0000 -0.0000 -10.3189 17.0912 6.9449 0.0000 -0.0000 0.0000 90.5332 -11.1706 -18.1486 -11.2295 18.6392 -1.8486 0.0000 0.0000 56.5730 6.8116 -33.5633 -3.7782 7.1250 -0.0000 -0.0000 43.3846 -57.9703 -15.6761
0.2101 17.4624 7.9489 -8.4182 2.9385 8.1388 0.0000 0.0000 0.0000 -15.1752 -38.1883 17.4321 0.0345 -1.1989 -3.2963 -5.6632 40.1912 -32.8241 0.1707 2.6619 7.3389 0.0000 0.0000 0.0000 24.1395 24.2947 2.8475 -0.0931 -1.9676 5.4161 0.6471 -18.3712 -19.4378 -0.0000 0.0360 -0.0988 3.6941 -0.7510 1.8788 2.2876 -0.4910 -10.0236 0.4703 -0.4480 -11.8332 -14.1718 -15.3389 1.6764 13.5619 -22.3016 11.0062 4.8098 -11.0385 6.1805 0.0000 -0.0000 0.0000 -96.3066 10.6014 -0.0632 11.5422 -19.1146 -1.9498 -0.0000 -0.0000 29.0566 12.5488 -12.6283 -2.7860 -7.1250 0.0000 -0.0000 -10.1869 17.1770 6.8336 0.0000 -0.0000 0.0000 90.5411 -11.3670 -17.5435 -11.3493 18.8216 -1.8871 0.0000 0.0000 55.6693 7.1684 -33.6755 -3.9892 7.1250 -0.0000 -0.0000 43.8261 -57.9753 -15.8850
0.2236 17.4611 7.9445 -8.5038 2.7629 8.2065 0.0000 0.0000 0.0000 -15.1440 -38.2764 17.5222 0.0362 -1.2278 -3.3758 -5.5823 40.1835 -33.4007 0.2166 2.9963 8.2683 0.0000 0.0000 0.0000 24.1628 24.4183 2.8193 -0.0910 -1.9459 5.3561 0.6522 -18.3576 -19.3443 -0.0005 0.1465 -0.4026 3.8635 -0.6778 1.8761 2.2861 -0.3768 -10.0619 0.3618 -0.4096 -11.8773 -14.3138 -15.3475 1.4562 13.4012 -22.3206 11.4604 4.7454 -11.0417 6.3603 0.0000 -0.0000 0.0000 -96.0650 10.7222 -0.4959 11.3156 -18.7703 -1.8762 -0.0000 -0.0000 29.8112 12.9795 -12.7267 -2.9068 -7.1250 0.0000 -0.0000 -9.8881 17.0501 6.6548 0.0000 -0.0000 0.0000 90.5502 -11.5627 -16.9701 -11.4382 18.9569 -1.9159 0.0000 0.0000 55.1616 7.3753 -33.7525 -4.1135 7.1250 -0.0000 -0.0000 44.0943 -57.9868 -16.0221
0.2339 17.4632 7.9479 -8.3349 2.5561 8.4486 0.0000 0.0000 0.0000 -15.4051 -38.5661 17.5794 0.0383 -1.2630 -3.4727 -5.6241 40.4366 -33.9995 0.2535 3.2394 8.9460 0.0000 0.0000 0.0000 23.8068 24.5078 2.6188 -0.0852 -1.8822 5.1803 0.6603 -18.3451 -19.2124 -0.0010 0.2047 -0.5624 3.7375 -0.5785 1.5815 2.1761 -0.2786 -10.0980 0.2971 -0.3560 -11.7327 -14.1549 -15.3602 1.3634 13.3866 -22.3392 11.5425 4.7091 -11.0396 6.3844 -0.0000 0.0000 0.0000 -95.6565 10.8736 -0.4953 11.1262 -18.4815 -1.8157 -0.0000 -0.0000 30.3333 13.6519 -12.6000 -3.0329 -7.1250 0.0000 -0.0000 -9.4262 17.1332 6.3176 -0.0000 0.0000 0.0000 90.6633 -11.6263 -16.4935 -11.4580 18.9868 -1.9223 0.0000 0.0000 54.7838 7.0230 -33.7421 -3.9145 7.1250 -0.0000 -0.0000 43.7630 -58.0572 -15.9458
0.2391 17.4701 7.9582 -7.9383 2.3430 8.8246 0.0000 0.0000 0.0000 -15.8775 -38.9919 17.5478 0.0401 -1.2930 -3.5552 -5.7766 40.8782 -34.4891 0.2725 3.3576 9.2760 0.0000 0.0000 0.0000 23.1507 24.6898 2.3432 -0.0761 -1.7800 4.8980 0.6806 -18.4438 -19.1466 -0.0003 0.1027 -0.2823 3.3542 -0.4313 1.1759 1.9218 -0.1490 -10.2378 0.2183 -0.2723 -11.6355 -13.8960 -15.3780 1.3619 13.3338 -22.3785 11.6690 4.6534 -11.0495 6.3943 0.0000 -0.0000 0.0000 -94.9562 11.3346 0.5070 11.0160 -18.3127 -1.7809 -0.0000 -0.0000 30.0973 14.4015 -11.9657 -3.0474 -7.1250 0.0000 -0.0000 -8.9155 17.7262 5.8492 0.0000 -0.0000 0.0000 90.9149 -11.7562 -16.0955 -11.4018 18.9015 -1.9040 0.0000 0.0000 54.2738 6.6803 -33.6595 -3.7142 7.1250 -0.0000 -0.0000 43.3644 -58.0716 -15.7770
0.2467 17.4746 7.9596 -7.7490 2.0778 9.0743 0.0000 0.0000 0.0000 -16.0717 -39.1867 17.4349 0.0400 -1.2916 -3.5515 -5.8614 41.1415 -34.8350 0.2815 3.4126 9.4297 0.0000 0.0000 0.0000 22.7737 24.9056 2.1293 -0.0723 -1.7349 4.7736 0.6893 -18.4517 -19.0472 -0.0000 0.0162 -0.0446 3.2873 -0.2937 1.2149 1.7029 0.0228 -10.5134 0.0054 -0.2008 -11.9750 -13.7331 -15.3546 1.4442 13.2275 -22.3868 11.9828 4.6006 -11.0519 6.4497 -0.0000 0.0000 0.0000 -94.3119 11.9973 0.9433 10.8728 -18.0930 -1.7362 -0.0000 -0.0000 30.4000 15.0152 -11.7703 -3.1319 -7.1250 0.0000 -0.0000 -8.4904 17.8842 5.5340 -0.0000 0.0000 0.0000 91.1815 -12.1828 -15.3518 -11.4526 18.9787 -1.9205 0.0000 0.0000 53.5757 6.5941 -33.5819 -3.6586 7.1250 -0.0000 -0.0000 43.2054 -58.0325 -15.6614
0.2586 17.4761 7.9540 -7.6574 1.8115 9.2288 0.0000 0.0000 0.0000 -16.1385 -39.1787 17.2475 0.0382 -1.2613 -3.4680 -5.8183 41.1535 -35.1645 0.2931 3.4815 9.6224 0.0000 0.0000 0.0000 22.5306 25.0663 1.9778 -0.0716 -1.7266 4.7506 0.6731 -18.3139 -18.9777 -0.0003 -0.1091 0.2996 3.3246 -0.2247 1.2984 1.6014 0.1179 -10.6687 -0.1328 -0.1684 -12.2059 -13.5905 -15.3056 1.4412 13.1097 -22.3221 12.1237 4.5537 -11.0186 6.4553 0.0000 -0.0000 0.0000 -93.9505 12.3605 0.7271 10.7826 -17.9542 -1.7083 -0.0000 -0.0000 31.6012 15.0900 -10.8043 -2.8935 -7.1250 0.0000 -0.0000 -8.4506 18.8655 5.3222 0.0000 -0.0000 0.0000 91.3171 -12.4440 -14.1530 -11.6087 19.2152 -1.9716 0.0000 0.0000 52.7437 6.6012 -33.7621 -3.6798 7.1250 -0.0000 -0.0000 43.3991 -58.1660 -15.8955
0.2692 17.4783 7.9508 -7.4629 1.5545 9.3546 0.0000 0.0000 0.0000 -16.3413 -39.0857 17.0736 0.0364 -1.2322 -3.3878 -5.7226 41.0729 -35.5155 0.3111 3.5856 9.9136 0.0000 0.0000 0.0000 22.2005 25.2040 1.9190 -0.0688 -1.6920 4.6552 0.6643 -18.2239 -18.9103 -0.0006 -0.1560 0.4285 3.1706 -0.1855 1.1976 1.5431 0.1481 -10.6808 -0.1142 -0.1421 -12.1547 -13.5741 -15.2348 1.3949 13.1293 -22.2247 12.1491 4.5666 -10.9677 6.4579 -0.0000 0.0000 0.0000 -93.6520 12.4375 -0.1307 10.4698 -17.4711 -1.6131 -0.0000 -0.0000 32.6313 15.7925 -11.9592 -3.3541 -7.1250 0.0000 -0.0000 -7.9473 17.6374 5.2164 -0.0000 0.0000 0.0000 91.3417 -12.4519 -12.7473 -11.7551 19.4363 -2.0201 0.0000 0.0000 51.8384 6.5547 -33.8814 -3.6651 7.1250 -0.0000 -0.0000 43.4813 -58.2656 -16.0420
0.2772 17.4808 7.9476 -7.3470 1.2782 9.4025 0.0000 0.0000 0.0000 -16.5315 -39.0080 17.0739 0.0358 -1.2221 -3.3602 -5.5931 40.9779 -36.0228 0.3540 3.8225 10.5779 0.0000 0.0000 0.0000 22.0236 25.3811 1.9551 -0.0663 -1.6617 4.5716 0.6678 -18.2099 -18.8332 -0.0002 -0.0997 0.2739 3.0417 -0.1893 1.1908 1.5772 0.1349 -10.6787 -0.0040 -0.1340 -12.1472 -13.7714 -15.1085 1.3263 13.2233 -22.0662 12.2522 4.6327 -10.8900 6.5132 0.0000 0.0000 0.0000 -93.4714 12.6086 -0.6029 10.3433 -17.2748 -1.5754 -0.0000 -0.0000 33.3528 15.8043 -11.7434 -3.2971 -7.1250 0.0000 -0.0000 -7.9401 17.8578 5.1727 0.0000 0.0000 0.0000 91.2356 -12.4554 -11.1745 -11.8991 19.6532 -2.0682 0.0000 0.0000 51.0382 6.3878 -33.7105 -3.5554 7.1250 -0.0000 -0.0000 43.1501 -58.1749 -15.7898
0.2835 17.4819 7.9437 -7.3439 0.9869 9.4497 0.0000 0.0000 0.0000 -16.6232 -39.0454 17.1731 0.0359 -1.2227 -3.3617 -5.4586 40.9362 -36.7082 0.4165 4.1423 11.4772 0.0000 0.0000 0.0000 21.9732 25.5913 1.9261 -0.0665 -1.6639 4.5776 0.6665 -18.1714 -18.7714 -0.0001 -0.0620 0.1703 2.9956 -0.2277 1.1999 1.6988 0.0903 -10.6775 0.1589 -0.1439 -12.1526 -13.9735 -14.9735 1.2393 13.2776 -21.8734 12.2605 4.6934 -10.7984 6.5321 0.0000 -0.0000 0.0000 -93.4184 12.8089 -1.1433 10.2936 -17.1975 -1.5606 -0.0000 -0.0000 34.0265 15.5674 -11.1776 -3.0913 -7.1250 0.0000 -0.0000 -8.1103 18.4535 5.1782 0.0000 -0.0000 0.0000 91.0350 -12.4336 -9.4673 -12.0633 19.8995 -2.1238 0.0000 0.0000 50.2495 6.3690 -33.6557 -3.5398 7.1250 -0.0000 -0.0000 43.0760 -58.1379 -15.7157
0.2921 17.4768 7.9382 -7.6602 0.7531 9.4117 0.0000 0.0000 0.0000 -16.3080 -38.8650 17.2384 0.0371 -1.2425 -3.4162 -5.3705 40.8713 -37.0286 0.4459 4.2844 11.8783 0.0000 0.0000 0.0000 22.3222 25.6254 1.9209 -0.0674 -1.6756 4.6098 0.6513 -17.9990 -18.6199 -0.0000 0.0071 -0.0195 3.3850 -0.2166 1.3030 1.8186 0.1504 -10.6426 0.0654 -0.1462 -12.1792 -13.9783 -14.9071 1.1307 13.2555 -21.7655 12.2727 4.6930 -10.7423 6.5367 -0.0000 0.0000 0.0000 -93.2414 13.0062 -1.2420 10.3045 -17.2145 -1.5639 -0.0000 -0.0000 34.5066 15.0331 -10.1187 -2.7015 -7.1250 0.0000 -0.0000 -8.5032 19.5690 5.2213 -0.0000 0.0000 0.0000 90.9781 -12.3641 -7.8628 -12.2664 20.2029 -2.1934 0.0000 0.0000 49.2390 6.4663 -33.8021 -3.6079 7.1250 -0.0000 -0.0000 43.3174 -58.2261 -15.9227
0.3034 17.4682 7.9301 -8.2863 0.6194 9.2383 0.0000 0.0000 0.0000 -15.6311 -38.4403 17.3107 0.0392 -1.2780 -3.5141 -5.3236 40.7461 -36.9255 0.4393 4.2530 11.7896 0.0000 0.0000 0.0000 23.1025 25.4603 2.0572 -0.0676 -1.6781 4.6168 0.6275 -17.7414 -18.4142 -0.0004 0.1340 -0.3681 4.2074 -0.1916 1.5826 1.9378 0.2740 -10.5684 -0.2766 -0.1609 -12.2726 -14.0358 -14.8810 1.0000 13.3403 -21.7468 12.4177 4.7141 -10.7230 6.6183 -0.0000 0.0000 0.0000 -92.9301 13.1123 -1.4341 10.2271 -17.0941 -1.5410 -0.0000 -0.0000 35.0301 14.6015 -9.5435 -2.4731 -7.1250 0.0000 -0.0000 -8.8234 20.1793 5.3006 -0.0000 0.0000 0.0000 91.0537 -12.2631 -6.3669 -12.4859 20.5294 -2.2698 0.0000 0.0000 48.1243 6.3669 -33.8871 -3.5600 7.1250 -0.0000 -0.0000 43.3155 -58.3120 -16.0147
0.3073 17.4682 7.9262 -8.3360 0.3725 9.2464 0.0000 0.0000 0.0000 -15.5465 -38.2445 17.2488 0.0396 -1.2842 -3.5311 -5.3086 40.7491 -37.0213 0.4417 4.2646 11.8222 0.0000 0.0000 0.0000 23.1236 25.5441 2.0230 -0.0683 -1.6866 4.6403 0.6115 -17.5895 -18.3245 -0.0008 0.1872 -0.5142 4.2617 -0.1762 1.6235 1.9539 0.3014 -10.5413 -0.2929 -0.1521 -12.2658 -13.9667 -14.8335 1.0429 13.3476 -21.6706 12.2884 4.7251 -10.6878 6.5521 -0.0000 -0.0000 0.0000 -92.6922 13.1882 -2.1709 10.1002 -16.8962 -1.5040 -0.0000 -0.0000 35.8668 14.4550 -9.5402 -2.4464 -7.1250 0.0000 -0.0000 -8.9279 20.1902 5.3627 -0.0000 -0.0000 0.0000 91.1280 -12.1938 -4.8976 -12.7222 20.8788 -2.3533 0.0000 0.0000 47.1354 6.1213 -33.7236 -3.4074 7.1250 -0.0000 -0.0000 42.9197 -58.2441 -15.7577
